<svg xmlns="http://www.w3.org/2000/svg" style="display:block" viewBox="0 0 256 256" width="256" height="256"><path d="M0 0h256v256H0Z" style="fill:#efefef"/><path d="M0 0h8l6 4 8 9 3 5v8l-4 2-14 3-5 2h-6l-2-1-6-12-6-12V2h7l2-1Z" transform="translate(190 70)" style="fill:#f4f4f4"/><path d="M0 0h9l17 6 4 5-1 7-8 8-13 7H1l-5-3-4-8V10l6-9Z" transform="translate(89 216)" style="fill:#f4f4f4"/><path d="M0 0h7l16 7 4 4v5l-5 5-7 4-13 6H-9l-5-3 1-9 7-14Z" transform="translate(45 163)" style="fill:#f4f4f4"/><path d="M0 0h17l10 8 2 3v5l-6 5L2 31l-6-1-2-10 1-17Z" transform="translate(163 171)" style="fill:#f4f4f4"/><path d="m0 0 4 1v5l-7 7-10 4-31 6-16 1-18-3-20-6-2-2 1-4 9 1 20 5 6 1h17l25-5 13-3 6-4Z" transform="translate(118 99)" style="fill:#f1f1f1"/><path d="M0 0h26l1 5-5 2H2l-12 5-5 4-6 8-6 5-12 6-13 4-5-1-1-4 9-3 16-7 6-4 6-7 5-5 10-6Z" transform="translate(118 170)" style="fill:#f1f1f1"/><path d="M0 0h11l11 4 11 5v5l-9-1-11-5-3-1H1l-11 5-16 4-9 1h-12l-1-4 2-2 23-3 16-5Z" transform="translate(178 45)" style="fill:#f1f1f1"/><path d="m0 0 7 1 12 8 1 5-5 4-19 9-5 1V15l4-10Z" transform="translate(52 55)" style="fill:#f4f4f4"/><path d="M0 0h7l5 4 1 11-3 6-3 2H0l-9-4-4-4V9l5-5Z" transform="translate(189 12)" style="fill:#f4f4f4"/><path d="m0 0 5 1-1 5-6 2-16 3-10 4-8 6-6 2-2-2 1-4 9-6 6-4 12-4Z" transform="translate(48 151)" style="fill:#f1f1f1"/><path d="m0 0 9 1 5 4 1 2v7l-1 2-10 2H0l-2-5V4Z" transform="translate(23 218)" style="fill:#e8e8e8"/><path d="m0 0 6 1 2 6v9l-2 4h-7l-5-3v-7l5-9Z" transform="translate(101 25)" style="fill:#e8e8e8"/><path d="M0 0h8l4 2 1 5-7 6-4 2h-5l-3-3 1-7Z" transform="translate(12 11)" style="fill:#e8e8e8"/><path d="m0 0 5 1-1 7-6 8-5 5-5 1-2-2 1-4 6-4 5-7Z" transform="translate(236 118)" style="fill:#f1f1f1"/><path d="M0 0h6l10 8 6 4-1 4-3 1-9-6-4-4-6-2Z" transform="translate(12 85)" style="fill:#f1f1f1"/><path d="m0 0 4 1 4 6-1 4-5 3h-9V8Z" transform="translate(40 132)" style="fill:#e8e8e8"/><path d="m0 0 4 2 4 5-1 5-2 1h-7l-5-1 1-5 4-6Z" transform="translate(173 121)" style="fill:#e8e8e8"/><path d="M0 0h7l3 3v6l-4 3-7-1-2-2V3Z" transform="translate(117 80)" style="fill:#f1f1f1"/><path d="M0 0h7l1 4-2 2-9 3-4 3-4-1 1-5 7-5Z" transform="translate(197 135)" style="fill:#f1f1f1"/><path d="m0 0 4 1 3 3-1 8-1 1-7-1-3-2 1-6Z" transform="translate(234 32)" style="fill:#e8e8e8"/><path d="m0 0 4 2-1 4-8 8-7 1-1-5 8-5Z" transform="translate(239 223)" style="fill:#f1f1f1"/><path d="M0 0h5l3 3v6l-3 3H0l-3-3V3Z" transform="translate(27 69)" style="fill:#f1f1f1"/><path d="m0 0 5 1 9 4 2 2-1 4-6-1-9-4-1-5Z" transform="translate(149 92)" style="fill:#f1f1f1"/><path d="m0 0 4 1 3 5v4l-3 2-5-1-2-3 1-5Z" transform="translate(215 163)" style="fill:#e8e8e8"/><path d="m0 0 5 1 1 1v5l-3 3-5-1V3Z" transform="translate(91 82)" style="fill:#e8e8e8"/><path d="M0 0h1v12H0Z" transform="translate(157 175)" style="fill:#f1f1f1"/><path d="M0 0h9v1H0Z" transform="translate(163 171)" style="fill:#f2f2f2"/><path d="M0 0h1v9H0Z" transform="translate(108 32)" style="fill:#ebebeb"/><path d="M0 0Zm-1 1Zm-1 1Zm-1 1Zm-1 1Zm-1 1Zm-1 1Zm-1 1Zm-1 1Z" transform="translate(70 8)" style="fill:#f1f1f1"/><path d="M0 0h1v8H0Z" transform="translate(42 74)" style="fill:#f1f1f1"/><path d="M0 0h8v1H0Z" transform="translate(190 70)" style="fill:#f2f2f2"/><path d="M0 0Zm-1 1Zm-1 1Zm-1 1Zm-1 1Zm-1 1Zm-1 1Z" transform="translate(228 195)" style="fill:#f1f1f1"/><path d="M0 0Zm-1 1Zm-1 1Zm-1 1Zm-1 1Zm-1 1Zm-1 1Z" transform="translate(7 183)" style="fill:#f1f1f1"/><path d="M0 0h6v1H0Z" transform="translate(38 194)" style="fill:#f1f1f1"/><path d="M0 0Zm-1 1Zm-1 1Zm-1 1Zm-1 1Zm-1 1Z" transform="translate(132 185)" style="fill:#f1f1f1"/><path d="M0 0h6v1H0Z" transform="translate(186 102)" style="fill:#f2f2f2"/><path d="M0 0Zm-1 1Zm-1 1Zm-1 1Zm-1 1Z" transform="translate(235 70)" style="fill:#f1f1f1"/><path d="M0 0Zm-1 1Zm-1 1Zm-1 1Zm-1 1Z" transform="translate(157 10)" style="fill:#f1f1f1"/><path d="M0 0Zm-1 1Zm-1 1Zm-1 1Zm-1 1Z" transform="translate(234 5)" style="fill:#f1f1f1"/><path d="m0 0 4 1Z" transform="translate(27 235)" style="fill:#ececec"/><path d="m0 0 4 1Z" transform="translate(23 235)" style="fill:#eaeaea"/><path d="M0 0Zm-1 1Zm-1 1Zm-1 1Z" transform="translate(135 217)" style="fill:#f1f1f1"/><path d="m0 0 4 1Z" transform="translate(161 201)" style="fill:#f2f2f2"/><path d="m0 0 4 1Z" transform="translate(215 174)" style="fill:#ebebeb"/><path d="m0 0 1 4Z" transform="translate(212 167)" style="fill:#ebebeb"/><path d="M0 0Zm-1 1Zm-1 1Zm-1 1Z" transform="translate(115 131)" style="fill:#f1f1f1"/><path d="m0 0 1 4Z" transform="translate(215 91)" style="fill:#f1f1f1"/><path d="m0 0 4 1Z" transform="translate(52 55)" style="fill:#f2f2f2"/><path d="m0 0 1 4Z" transform="translate(94 37)" style="fill:#ececec"/><path d="m0 0 4 1Z" transform="translate(101 25)" style="fill:#ebebeb"/><path d="m0 0 1 4Z" transform="translate(6 19)" style="fill:#ebebeb"/><path d="m0 0 4 1Z" transform="translate(191 11)" style="fill:#f1f1f1"/><path d="m0 0 4 1Z" transform="translate(14 10)" style="fill:#ececec"/><path d="M0 0Z" transform="translate(80 229)" style="fill:#f1f1f1"/><path d="m0 0 2 1-2 1Z" transform="translate(27 224)" style="fill:#ededed"/><path d="M0 0Zm-1 1Zm-1 1Z" transform="translate(55 217)" style="fill:#f1f1f1"/><path d="M0 0Z" transform="translate(157 191)" style="fill:#f1f1f1"/><path d="M0 0Z" transform="translate(221 166)" style="fill:#ececec"/><path d="M0 0Zm-1 1Zm-1 1Z" transform="translate(202 149)" style="fill:#f1f1f1"/><path d="M0 0Zm-1 1Zm-1 1Z" transform="translate(14 141)" style="fill:#f1f1f1"/><path d="M0 0Z" transform="translate(47 139)" style="fill:#ebebeb"/><path d="m0 0 3 1Z" transform="translate(175 133)" style="fill:#eaeaea"/><path d="m0 0 3 1Z" transform="translate(40 132)" style="fill:#eaeaea"/><path d="M0 0Z" transform="translate(180 128)" style="fill:#ebebeb"/><path d="M0 0Zm-1 1Zm-1 1Z" transform="translate(133 108)" style="fill:#f1f1f1"/><path d="M0 0Z" transform="translate(171 73)" style="fill:#f1f1f1"/><path d="M0 0Z" transform="translate(71 66)" style="fill:#f2f2f2"/><path d="M0 0Zm-1 1Zm-1 1Z" transform="translate(102 64)" style="fill:#f1f1f1"/><path d="M0 0Zm-1 1Zm-1 1Z" transform="translate(224 54)" style="fill:#f1f1f1"/><path d="M0 0Zm-1 1Zm-1 1Z" transform="translate(37 41)" style="fill:#f1f1f1"/><path d="M0 0Zm-1 1Zm-1 1Z" transform="translate(128 36)" style="fill:#f1f1f1"/><path d="M0 0Zm-1 1Zm-1 1Z" transform="translate(76 26)" style="fill:#f1f1f1"/><path d="M0 0Z" transform="translate(201 18)" style="fill:#f1f1f1"/><path d="m0 0 2 1Z" transform="translate(34 234)" style="fill:#ededed"/><path d="M0 0Z" transform="translate(21 231)" style="fill:#ebebeb"/><path d="M0 0Zm-1 1Z" transform="translate(128 230)" style="fill:#f1f1f1"/><path d="m0 0 2 1Z" transform="translate(29 224)" style="fill:#eaeaea"/><path d="M0 0Zm-1 1Z" transform="translate(163 222)" style="fill:#f2f2f2"/><path d="M0 0Z" transform="translate(22 219)" style="fill:#ececec"/><path d="m0 0 2 1Z" transform="translate(24 217)" style="fill:#ededed"/><path d="m0 0 2 1Z" transform="translate(93 215)" style="fill:#f1f1f1"/><path d="M0 0Zm-1 1Z" transform="translate(188 194)" style="fill:#f1f1f1"/><path d="M0 0Z" transform="translate(192 184)" style="fill:#f1f1f1"/><path d="M0 0Zm-1 1Z" transform="translate(71 164)" style="fill:#f1f1f1"/><path d="m0 0 2 1Z" transform="translate(48 162)" style="fill:#f1f1f1"/><path d="M0 0Zm-1 1Z" transform="translate(163 149)" style="fill:#f1f1f1"/><path d="m0 0 2 1Z" transform="translate(34 146)" style="fill:#ececec"/><path d="M0 0Z" transform="translate(32 143)" style="fill:#ececec"/><path d="m0 0 2 1Z" transform="translate(171 133)" style="fill:#eaeaea"/><path d="m0 0 2 1Z" transform="translate(167 133)" style="fill:#ececec"/><path d="M0 0Zm-1 1Z" transform="translate(76 131)" style="fill:#f1f1f1"/><path d="M0 0Zm-1 1Z" transform="translate(150 111)" style="fill:#f1f1f1"/><path d="M0 0Z" transform="translate(183 99)" style="fill:#f1f1f1"/><path d="m0 0 2 1Z" transform="translate(200 99)" style="fill:#f1f1f1"/><path d="M0 0Zm-1 1Z" transform="translate(56 99)" style="fill:#f1f1f1"/><path d="m0 0 2 1Z" transform="translate(205 98)" style="fill:#f1f1f1"/><path d="M0 0Z" transform="translate(97 85)" style="fill:#ededed"/><path d="m0 0 2 1Z" transform="translate(177 72)" style="fill:#f1f1f1"/><path d="M0 0Z" transform="translate(43 70)" style="fill:#f2f2f2"/><path d="m0 0 2 1Z" transform="translate(100 44)" style="fill:#eaeaea"/><path d="M0 0Z" transform="translate(240 41)" style="fill:#ededed"/><path d="M0 0Zm-1 1Z" transform="translate(74 41)" style="fill:#f1f1f1"/><path d="M0 0Z" transform="translate(228 39)" style="fill:#ededed"/><path d="M0 0Zm-1 1Z" transform="translate(15 38)" style="fill:#f1f1f1"/><path d="m0 0 2 1Z" transform="translate(185 33)" style="fill:#f1f1f1"/><path d="M0 0Z" transform="translate(6 17)" style="fill:#ededed"/><path d="M0 0Zm-1 1Z" transform="translate(135 12)" style="fill:#f1f1f1"/><path d="M0 0Zm-1 1Z" transform="translate(205 7)" style="fill:#f1f1f1"/><path d="M0 0Zm-1 1Z" transform="translate(30 7)" style="fill:#f1f1f1"/><path d="M0 0Zm-1 1Z" transform="translate(122 6)" style="fill:#f2f2f2"/><path d="M0 0Z" transform="translate(97 248)" style="fill:#f1f1f1"/><path d="M0 0Z" transform="translate(89 248)" style="fill:#f1f1f1"/><path d="M0 0Z" transform="translate(99 247)" style="fill:#f1f1f1"/><path d="M0 0Z" transform="translate(86 246)" style="fill:#f2f2f2"/><path d="M0 0Z" transform="translate(145 245)" style="fill:#f1f1f1"/><path d="M0 0Z" transform="translate(85 245)" style="fill:#f2f2f2"/><path d="M0 0Z" transform="translate(84 244)" style="fill:#f1f1f1"/><path d="M0 0Z" transform="translate(108 242)" style="fill:#f1f1f1"/><path d="M0 0Z" transform="translate(113 238)" style="fill:#f1f1f1"/><path d="M0 0Z" transform="translate(114 237)" style="fill:#f1f1f1"/><path d="M0 0Z" transform="translate(115 236)" style="fill:#f1f1f1"/><path d="M0 0Z" transform="translate(23 235)" style="fill:#ececec"/><path d="M0 0Z" transform="translate(34 234)" style="fill:#ebebeb"/><path d="M0 0Z" transform="translate(22 234)" style="fill:#ececec"/><path d="M0 0Z" transform="translate(117 233)" style="fill:#f2f2f2"/><path d="M0 0Z" transform="translate(36 233)" style="fill:#ebebeb"/><path d="M0 0Z" transform="translate(37 232)" style="fill:#ededed"/><path d="M0 0Z" transform="translate(118 231)" style="fill:#f1f1f1"/><path d="M0 0Z" transform="translate(102 231)" style="fill:#f1f1f1"/><path d="M0 0Z" transform="translate(21 230)" style="fill:#ededed"/><path d="M0 0Z" transform="translate(38 228)" style="fill:#ededed"/><path d="M0 0Z" transform="translate(21 227)" style="fill:#ececec"/><path d="M0 0Z" transform="translate(118 226)" style="fill:#f1f1f1"/><path d="M0 0Z" transform="translate(27 226)" style="fill:#ebebeb"/><path d="M0 0Z" transform="translate(81 225)" style="fill:#f1f1f1"/><path d="M0 0Z" transform="translate(37 225)" style="fill:#ebebeb"/><path d="M0 0Z" transform="translate(28 225)" style="fill:#ebebeb"/><path d="M0 0Z" transform="translate(29 224)" style="fill:#ececec"/><path d="M0 0Z" transform="translate(28 224)" style="fill:#efefef"/><path d="M0 0Z" transform="translate(116 223)" style="fill:#f1f1f1"/><path d="M0 0Z" transform="translate(82 223)" style="fill:#f1f1f1"/><path d="M0 0Z" transform="translate(36 223)" style="fill:#eaeaea"/><path d="M0 0Z" transform="translate(115 222)" style="fill:#f1f1f1"/><path d="M0 0Z" transform="translate(83 222)" style="fill:#f2f2f2"/><path d="M0 0Z" transform="translate(112 221)" style="fill:#f2f2f2"/><path d="M0 0Z" transform="translate(35 221)" style="fill:#ededed"/><path d="M0 0Z" transform="translate(21 221)" style="fill:#ececec"/><path d="M0 0Z" transform="translate(109 220)" style="fill:#f2f2f2"/><path d="M0 0Z" transform="translate(85 220)" style="fill:#f1f1f1"/><path d="M0 0Z" transform="translate(34 220)" style="fill:#ededed"/><path d="M0 0Z" transform="translate(107 219)" style="fill:#f1f1f1"/><path d="M0 0Z" transform="translate(32 219)" style="fill:#ececec"/><path d="M0 0Z" transform="translate(31 219)" style="fill:#eaeaea"/><path d="M0 0Z" transform="translate(103 218)" style="fill:#f2f2f2"/><path d="M0 0Z" transform="translate(86 218)" style="fill:#f1f1f1"/><path d="M0 0Z" transform="translate(23 218)" style="fill:#eaeaea"/><path d="M0 0Z" transform="translate(99 217)" style="fill:#f2f2f2"/><path d="M0 0Z" transform="translate(87 217)" style="fill:#f2f2f2"/><path d="M0 0Z" transform="translate(97 216)" style="fill:#f2f2f2"/><path d="M0 0Z" transform="translate(187 214)" style="fill:#f1f1f1"/><path d="M0 0Z" transform="translate(160 201)" style="fill:#f1f1f1"/><path d="M0 0Z" transform="translate(159 200)" style="fill:#f2f2f2"/><path d="M0 0Z" transform="translate(172 197)" style="fill:#f2f2f2"/><path d="M0 0Z" transform="translate(174 196)" style="fill:#f2f2f2"/><path d="M0 0Z" transform="translate(158 196)" style="fill:#f2f2f2"/><path d="M0 0Z" transform="translate(179 194)" style="fill:#f1f1f1"/><path d="M0 0Z" transform="translate(181 193)" style="fill:#f2f2f2"/><path d="M0 0Z" transform="translate(47 193)" style="fill:#f1f1f1"/><path d="M0 0Z" transform="translate(184 192)" style="fill:#f1f1f1"/><path d="M0 0Z" transform="translate(49 192)" style="fill:#f2f2f2"/><path d="M0 0Z" transform="translate(33 192)" style="fill:#f1f1f1"/><path d="M0 0Z" transform="translate(14 192)" style="fill:#f1f1f1"/><path d="M0 0Z" transform="translate(186 191)" style="fill:#f1f1f1"/><path d="M0 0Z" transform="translate(31 191)" style="fill:#f1f1f1"/><path d="M0 0Z" transform="translate(53 190)" style="fill:#f2f2f2"/><path d="M0 0Z" transform="translate(189 189)" style="fill:#f1f1f1"/><path d="M0 0Z" transform="translate(55 189)" style="fill:#f2f2f2"/><path d="M0 0Z" transform="translate(190 188)" style="fill:#f1f1f1"/><path d="M0 0Z" transform="translate(191 187)" style="fill:#f1f1f1"/><path d="M0 0Z" transform="translate(60 187)" style="fill:#f1f1f1"/><path d="M0 0Z" transform="translate(62 186)" style="fill:#f2f2f2"/><path d="M0 0Z" transform="translate(64 185)" style="fill:#f1f1f1"/><path d="M0 0Z" transform="translate(31 184)" style="fill:#f1f1f1"/><path d="M0 0Z" transform="translate(67 183)" style="fill:#f1f1f1"/><path d="M0 0Z" transform="translate(68 182)" style="fill:#f2f2f2"/><path d="M0 0Z" transform="translate(32 182)" style="fill:#f2f2f2"/><path d="M0 0Z" transform="translate(191 181)" style="fill:#f1f1f1"/><path d="M0 0Z" transform="translate(69 181)" style="fill:#f2f2f2"/><path d="M0 0Z" transform="translate(190 180)" style="fill:#f2f2f2"/><path d="M0 0Z" transform="translate(70 180)" style="fill:#f1f1f1"/><path d="M0 0Z" transform="translate(33 180)" style="fill:#f2f2f2"/><path d="M0 0Z" transform="translate(189 179)" style="fill:#f2f2f2"/><path d="M0 0Z" transform="translate(188 178)" style="fill:#f2f2f2"/><path d="M0 0Z" transform="translate(71 178)" style="fill:#f2f2f2"/><path d="M0 0Z" transform="translate(187 177)" style="fill:#f2f2f2"/><path d="M0 0Z" transform="translate(34 177)" style="fill:#f1f1f1"/><path d="M0 0Z" transform="translate(186 176)" style="fill:#f2f2f2"/><path d="M0 0Z" transform="translate(185 175)" style="fill:#f1f1f1"/><path d="M0 0Z" transform="translate(219 174)" style="fill:#ededed"/><path d="M0 0Z" transform="translate(35 174)" style="fill:#f1f1f1"/><path d="M0 0Z" transform="translate(220 173)" style="fill:#ececec"/><path d="M0 0Z" transform="translate(213 173)" style="fill:#ececec"/><path d="M0 0Z" transform="translate(158 173)" style="fill:#f1f1f1"/><path d="M0 0Z" transform="translate(221 172)" style="fill:#ebebeb"/><path d="M0 0Z" transform="translate(159 172)" style="fill:#f1f1f1"/><path d="M0 0Z" transform="translate(36 172)" style="fill:#f1f1f1"/><path d="M0 0Z" transform="translate(212 171)" style="fill:#ededed"/><path d="M0 0Z" transform="translate(65 169)" style="fill:#f1f1f1"/><path d="M0 0Z" transform="translate(38 169)" style="fill:#f2f2f2"/><path d="M0 0Z" transform="translate(62 168)" style="fill:#f2f2f2"/><path d="M0 0Z" transform="translate(60 167)" style="fill:#f1f1f1"/><path d="M0 0Z" transform="translate(39 167)" style="fill:#f1f1f1"/><path d="M0 0Z" transform="translate(212 166)" style="fill:#ededed"/><path d="M0 0Z" transform="translate(58 166)" style="fill:#f1f1f1"/><path d="M0 0Z" transform="translate(40 166)" style="fill:#f1f1f1"/><path d="M0 0Z" transform="translate(220 165)" style="fill:#ececec"/><path d="M0 0Z" transform="translate(213 165)" style="fill:#ececec"/><path d="M0 0Z" transform="translate(56 165)" style="fill:#f1f1f1"/><path d="M0 0Z" transform="translate(41 165)" style="fill:#f1f1f1"/><path d="M0 0Z" transform="translate(219 164)" style="fill:#ededed"/><path d="M0 0Z" transform="translate(214 164)" style="fill:#ebebeb"/><path d="M0 0Z" transform="translate(54 164)" style="fill:#f1f1f1"/><path d="M0 0Z" transform="translate(217 163)" style="fill:#eaeaea"/><path d="M0 0Z" transform="translate(215 163)" style="fill:#ebebeb"/><path d="M0 0Z" transform="translate(52 163)" style="fill:#f1f1f1"/><path d="M0 0Z" transform="translate(44 163)" style="fill:#f1f1f1"/><path d="M0 0Z" transform="translate(39 146)" style="fill:#ededed"/><path d="M0 0Z" transform="translate(42 145)" style="fill:#ececec"/><path d="M0 0Z" transform="translate(41 145)" style="fill:#eaeaea"/><path d="M0 0Z" transform="translate(37 145)" style="fill:#ebebeb"/><path d="M0 0Z" transform="translate(44 144)" style="fill:#eaeaea"/><path d="M0 0Z" transform="translate(46 143)" style="fill:#ededed"/><path d="M0 0Z" transform="translate(33 140)" style="fill:#ebebeb"/><path d="M0 0Z" transform="translate(47 139)" style="fill:#ececec"/><path d="M0 0Z" transform="translate(34 138)" style="fill:#ececec"/><path d="M0 0Z" transform="translate(46 137)" style="fill:#ededed"/><path d="M0 0Z" transform="translate(35 137)" style="fill:#eaeaea"/><path d="M0 0Z" transform="translate(45 135)" style="fill:#ececec"/><path d="M0 0Z" transform="translate(36 135)" style="fill:#ededed"/><path d="M0 0Z" transform="translate(37 134)" style="fill:#ededed"/><path d="M0 0Z" transform="translate(177 133)" style="fill:#ececec"/><path d="M0 0Z" transform="translate(171 133)" style="fill:#ececec"/><path d="M0 0Z" transform="translate(44 133)" style="fill:#ededed"/><path d="M0 0Z" transform="translate(39 133)" style="fill:#eaeaea"/><path d="M0 0Z" transform="translate(179 132)" style="fill:#ebebeb"/><path d="M0 0Z" transform="translate(166 132)" style="fill:#ebebeb"/><path d="M0 0Z" transform="translate(40 132)" style="fill:#ececec"/><path d="M0 0Z" transform="translate(180 131)" style="fill:#ededed"/><path d="M0 0Z" transform="translate(166 129)" style="fill:#eaeaea"/><path d="M0 0Z" transform="translate(180 127)" style="fill:#ededed"/><path d="M0 0Z" transform="translate(167 127)" style="fill:#ededed"/><path d="M0 0Z" transform="translate(179 126)" style="fill:#ececec"/><path d="M0 0Z" transform="translate(168 126)" style="fill:#ebebeb"/><path d="M0 0Z" transform="translate(178 125)" style="fill:#ebebeb"/><path d="M0 0Z" transform="translate(177 124)" style="fill:#eaeaea"/><path d="M0 0Z" transform="translate(169 124)" style="fill:#ededed"/><path d="M0 0Z" transform="translate(170 123)" style="fill:#ebebeb"/><path d="M0 0Z" transform="translate(176 122)" style="fill:#ececec"/><path d="M0 0Z" transform="translate(171 122)" style="fill:#ebebeb"/><path d="M0 0Z" transform="translate(175 121)" style="fill:#ececec"/><path d="M0 0Z" transform="translate(172 121)" style="fill:#ececec"/><path d="M0 0Z" transform="translate(185 102)" style="fill:#f1f1f1"/><path d="M0 0Z" transform="translate(194 101)" style="fill:#f2f2f2"/><path d="M0 0Z" transform="translate(197 100)" style="fill:#f1f1f1"/><path d="M0 0Z" transform="translate(211 97)" style="fill:#f1f1f1"/><path d="M0 0Z" transform="translate(182 96)" style="fill:#f2f2f2"/><path d="M0 0Z" transform="translate(181 94)" style="fill:#f2f2f2"/><path d="M0 0Z" transform="translate(92 92)" style="fill:#ededed"/><path d="M0 0Z" transform="translate(179 91)" style="fill:#f2f2f2"/><path d="M0 0Z" transform="translate(94 91)" style="fill:#ececec"/><path d="M0 0Z" transform="translate(90 91)" style="fill:#eaeaea"/><path d="M0 0Z" transform="translate(95 90)" style="fill:#ececec"/><path d="M0 0Z" transform="translate(96 89)" style="fill:#ededed"/><path d="M0 0Z" transform="translate(214 88)" style="fill:#f2f2f2"/><path d="M0 0Z" transform="translate(177 88)" style="fill:#f2f2f2"/><path d="M0 0Z" transform="translate(213 86)" style="fill:#f2f2f2"/><path d="M0 0Z" transform="translate(89 85)" style="fill:#eaeaea"/><path d="M0 0Z" transform="translate(212 84)" style="fill:#f1f1f1"/><path d="M0 0Z" transform="translate(175 84)" style="fill:#f2f2f2"/><path d="M0 0Z" transform="translate(95 83)" style="fill:#ebebeb"/><path d="M0 0Z" transform="translate(90 83)" style="fill:#ebebeb"/><path d="M0 0Z" transform="translate(174 82)" style="fill:#f1f1f1"/><path d="M0 0Z" transform="translate(94 82)" style="fill:#ededed"/><path d="M0 0Z" transform="translate(91 82)" style="fill:#eaeaea"/><path d="M0 0Z" transform="translate(46 82)" style="fill:#f2f2f2"/><path d="M0 0Z" transform="translate(43 82)" style="fill:#f2f2f2"/><path d="M0 0Z" transform="translate(210 81)" style="fill:#f1f1f1"/><path d="M0 0Z" transform="translate(48 81)" style="fill:#f1f1f1"/><path d="M0 0Z" transform="translate(209 80)" style="fill:#f2f2f2"/><path d="M0 0Z" transform="translate(50 80)" style="fill:#f1f1f1"/><path d="M0 0Z" transform="translate(208 79)" style="fill:#f2f2f2"/><path d="M0 0Z" transform="translate(173 79)" style="fill:#f2f2f2"/><path d="M0 0Z" transform="translate(150 79)" style="fill:#f1f1f1"/><path d="M0 0Z" transform="translate(53 78)" style="fill:#f2f2f2"/><path d="M0 0Z" transform="translate(172 77)" style="fill:#f2f2f2"/><path d="M0 0Z" transform="translate(55 77)" style="fill:#f2f2f2"/><path d="M0 0Z" transform="translate(57 76)" style="fill:#f2f2f2"/><path d="M0 0Z" transform="translate(59 75)" style="fill:#f2f2f2"/><path d="M0 0Z" transform="translate(64 73)" style="fill:#f2f2f2"/><path d="M0 0Z" transform="translate(201 72)" style="fill:#f2f2f2"/><path d="M0 0Z" transform="translate(175 72)" style="fill:#f2f2f2"/><path d="M0 0Z" transform="translate(172 72)" style="fill:#f2f2f2"/><path d="M0 0Z" transform="translate(66 72)" style="fill:#f2f2f2"/><path d="M0 0Z" transform="translate(200 71)" style="fill:#f1f1f1"/><path d="M0 0Z" transform="translate(180 71)" style="fill:#f1f1f1"/><path d="M0 0Z" transform="translate(68 71)" style="fill:#f2f2f2"/><path d="M0 0Z" transform="translate(44 67)" style="fill:#f2f2f2"/><path d="M0 0Z" transform="translate(45 64)" style="fill:#f1f1f1"/><path d="M0 0Z" transform="translate(69 63)" style="fill:#f2f2f2"/><path d="M0 0Z" transform="translate(68 62)" style="fill:#f1f1f1"/><path d="M0 0Z" transform="translate(46 62)" style="fill:#f2f2f2"/><path d="M0 0Z" transform="translate(66 61)" style="fill:#f2f2f2"/><path d="M0 0Z" transform="translate(65 60)" style="fill:#f1f1f1"/><path d="M0 0Z" transform="translate(47 60)" style="fill:#f2f2f2"/><path d="M0 0Z" transform="translate(63 59)" style="fill:#f2f2f2"/><path d="M0 0Z" transform="translate(60 57)" style="fill:#f2f2f2"/><path d="M0 0Z" transform="translate(49 57)" style="fill:#f1f1f1"/><path d="M0 0Z" transform="translate(58 56)" style="fill:#f2f2f2"/><path d="M0 0Z" transform="translate(238 44)" style="fill:#ebebeb"/><path d="M0 0Z" transform="translate(233 44)" style="fill:#ececec"/><path d="M0 0Z" transform="translate(106 44)" style="fill:#ebebeb"/><path d="M0 0Z" transform="translate(100 44)" style="fill:#ececec"/><path d="M0 0Z" transform="translate(239 43)" style="fill:#ebebeb"/><path d="M0 0Z" transform="translate(232 43)" style="fill:#eaeaea"/><path d="M0 0Z" transform="translate(231 43)" style="fill:#ededed"/><path d="M0 0Z" transform="translate(107 43)" style="fill:#ececec"/><path d="M0 0Z" transform="translate(98 43)" style="fill:#eaeaea"/><path d="M0 0Z" transform="translate(97 43)" style="fill:#ededed"/><path d="M0 0Z" transform="translate(230 42)" style="fill:#ebebeb"/><path d="M0 0Z" transform="translate(96 42)" style="fill:#eaeaea"/><path d="M0 0Z" transform="translate(240 41)" style="fill:#ebebeb"/><path d="M0 0Z" transform="translate(229 41)" style="fill:#eaeaea"/><path d="M0 0Z" transform="translate(95 41)" style="fill:#eaeaea"/><path d="M0 0Z" transform="translate(229 37)" style="fill:#ededed"/><path d="M0 0Z" transform="translate(240 35)" style="fill:#ececec"/><path d="M0 0Z" transform="translate(230 35)" style="fill:#ededed"/><path d="M0 0Z" transform="translate(95 35)" style="fill:#ebebeb"/><path d="M0 0Z" transform="translate(239 34)" style="fill:#ececec"/><path d="M0 0Z" transform="translate(231 34)" style="fill:#ebebeb"/><path d="M0 0Z" transform="translate(196 34)" style="fill:#f1f1f1"/><path d="M0 0Z" transform="translate(189 34)" style="fill:#f2f2f2"/><path d="M0 0Z" transform="translate(237 33)" style="fill:#eaeaea"/><path d="M0 0Z" transform="translate(232 33)" style="fill:#ececec"/><path d="M0 0Z" transform="translate(96 33)" style="fill:#eaeaea"/><path d="M0 0Z" transform="translate(236 32)" style="fill:#eaeaea"/><path d="M0 0Z" transform="translate(233 32)" style="fill:#ededed"/><path d="M0 0Z" transform="translate(183 32)" style="fill:#f2f2f2"/><path d="M0 0Z" transform="translate(96 32)" style="fill:#ededed"/><path d="M0 0Z" transform="translate(181 31)" style="fill:#f2f2f2"/><path d="M0 0Z" transform="translate(200 30)" style="fill:#f1f1f1"/><path d="M0 0Z" transform="translate(179 30)" style="fill:#f1f1f1"/><path d="M0 0Z" transform="translate(97 30)" style="fill:#ececec"/><path d="M0 0Z" transform="translate(178 29)" style="fill:#f2f2f2"/><path d="M0 0Z" transform="translate(177 28)" style="fill:#f2f2f2"/><path d="M0 0Z" transform="translate(107 28)" style="fill:#ebebeb"/><path d="M0 0Z" transform="translate(98 28)" style="fill:#ececec"/><path d="M0 0Z" transform="translate(201 27)" style="fill:#f1f1f1"/><path d="M0 0Z" transform="translate(176 27)" style="fill:#f1f1f1"/><path d="M0 0Z" transform="translate(107 27)" style="fill:#ededed"/><path d="M0 0Z" transform="translate(99 27)" style="fill:#eaeaea"/><path d="M0 0Z" transform="translate(106 26)" style="fill:#ebebeb"/><path d="M0 0Z" transform="translate(14 25)" style="fill:#ededed"/><path d="M0 0Z" transform="translate(13 25)" style="fill:#eaeaea"/><path d="M0 0Z" transform="translate(8 25)" style="fill:#ededed"/><path d="M0 0Z" transform="translate(16 24)" style="fill:#ececec"/><path d="M0 0Z" transform="translate(7 24)" style="fill:#ececec"/><path d="M0 0Z" transform="translate(18 23)" style="fill:#ededed"/><path d="M0 0Z" transform="translate(17 23)" style="fill:#eaeaea"/><path d="M0 0Z" transform="translate(19 22)" style="fill:#ebebeb"/><path d="M0 0Z" transform="translate(20 21)" style="fill:#eaeaea"/><path d="M0 0Z" transform="translate(176 20)" style="fill:#f1f1f1"/><path d="M0 0Z" transform="translate(22 20)" style="fill:#ededed"/><path d="M0 0Z" transform="translate(12 20)" style="fill:#ebebeb"/><path d="M0 0Z" transform="translate(23 19)" style="fill:#ececec"/><path d="M0 0Z" transform="translate(24 18)" style="fill:#ececec"/><path d="M0 0Z" transform="translate(179 17)" style="fill:#f1f1f1"/><path d="M0 0Z" transform="translate(181 16)" style="fill:#f2f2f2"/><path d="M0 0Z" transform="translate(25 16)" style="fill:#ededed"/><path d="M0 0Z" transform="translate(19 16)" style="fill:#eaeaea"/><path d="M0 0Z" transform="translate(182 15)" style="fill:#f1f1f1"/><path d="M0 0Z" transform="translate(7 15)" style="fill:#ececec"/><path d="M0 0Z" transform="translate(184 14)" style="fill:#f2f2f2"/><path d="M0 0Z" transform="translate(24 14)" style="fill:#ececec"/><path d="M0 0Z" transform="translate(8 14)" style="fill:#ebebeb"/><path d="M0 0Z" transform="translate(197 13)" style="fill:#f2f2f2"/><path d="M0 0Z" transform="translate(186 13)" style="fill:#f2f2f2"/><path d="M0 0Z" transform="translate(23 13)" style="fill:#eaeaea"/><path d="M0 0Z" transform="translate(9 13)" style="fill:#eaeaea"/><path d="M0 0Z" transform="translate(196 12)" style="fill:#f1f1f1"/><path d="M0 0Z" transform="translate(188 12)" style="fill:#f1f1f1"/><path d="M0 0Z" transform="translate(22 12)" style="fill:#ececec"/><path d="M0 0Z" transform="translate(10 12)" style="fill:#eaeaea"/><path d="M0 0Z" transform="translate(20 11)" style="fill:#ececec"/><path d="M0 0Z" transform="translate(19 11)" style="fill:#eaeaea"/><path d="M0 0Z" transform="translate(11 11)" style="fill:#ececec"/></svg>